<?xml version="1.0" encoding="utf-8"?>
<!-- Generator: Adobe Illustrator 21.1.0, SVG Export Plug-In . SVG Version: 6.00 Build 0)  -->
<svg version="1.1" id="Layer_1" xmlns="http://www.w3.org/2000/svg" xmlns:xlink="http://www.w3.org/1999/xlink" x="0px" y="0px"
	 viewBox="0 0 149.5 434.4" enable-background="new 0 0 149.5 434.4" xml:space="preserve">
<g>
	<g>
		<g id="CIRCLE">
			
				<path fill="none" stroke="#E52521" stroke-width="2.834646e-02" stroke-linecap="round" stroke-linejoin="round" stroke-miterlimit="10" d="
				M6.2,76.1C6.2,38,37.1,7.1,75.3,7.1s69.1,30.9,69.1,69.1s-30.9,69.1-69.1,69.1S6.2,114.3,6.2,76.1L6.2,76.1z"/>
		</g>
		<g id="CIRCLE_1_">
			
				<path fill="none" stroke="#E52521" stroke-width="2.834646e-02" stroke-linecap="round" stroke-linejoin="round" stroke-miterlimit="10" d="
				M34.2,76.1C34.2,53.4,52.6,35,75.3,35s41.1,18.4,41.1,41.1S98,117.2,75.3,117.2S34.2,98.8,34.2,76.1L34.2,76.1z"/>
		</g>
	</g>
	<g>
		<g id="CIRCLE_7_">
			
				<path fill="none" stroke="#E52521" stroke-width="2.834646e-02" stroke-linecap="round" stroke-linejoin="round" stroke-miterlimit="10" d="
				M6.2,217.2c0-38.2,30.9-69.1,69.1-69.1s69.1,30.9,69.1,69.1s-30.9,69.1-69.1,69.1S6.2,255.3,6.2,217.2L6.2,217.2z"/>
		</g>
		<g id="CIRCLE_6_">
			
				<path fill="none" stroke="#E52521" stroke-width="2.834646e-02" stroke-linecap="round" stroke-linejoin="round" stroke-miterlimit="10" d="
				M109.1,230.1c0-0.8,0.6-1.4,1.4-1.4s1.4,0.6,1.4,1.4s-0.6,1.4-1.4,1.4S109.1,230.9,109.1,230.1L109.1,230.1z"/>
		</g>
		<g id="CIRCLE_2_">
			
				<path fill="none" stroke="#E52521" stroke-width="2.834646e-02" stroke-linecap="round" stroke-linejoin="round" stroke-miterlimit="10" d="
				M110.7,207.9c0-0.8,0.6-1.4,1.4-1.4s1.4,0.6,1.4,1.4c0,0.8-0.6,1.4-1.4,1.4S110.7,208.7,110.7,207.9L110.7,207.9z"/>
		</g>
		<g id="CIRCLE_3_">
			
				<path fill="none" stroke="#E52521" stroke-width="2.834646e-02" stroke-linecap="round" stroke-linejoin="round" stroke-miterlimit="10" d="
				M101.6,194.1c0-0.8,0.6-1.4,1.4-1.4c0.8,0,1.4,0.6,1.4,1.4s-0.6,1.4-1.4,1.4C102.2,195.5,101.6,194.9,101.6,194.1L101.6,194.1z"
				/>
		</g>
		<g id="CIRCLE_4_">
			
				<path fill="none" stroke="#E52521" stroke-width="2.834646e-02" stroke-linecap="round" stroke-linejoin="round" stroke-miterlimit="10" d="
				M96.8,189.8c0-0.8,0.6-1.4,1.4-1.4c0.8,0,1.4,0.6,1.4,1.4s-0.6,1.4-1.4,1.4C97.5,191.2,96.8,190.6,96.8,189.8L96.8,189.8z"/>
		</g>
		<g id="CIRCLE_5_">
			
				<path fill="none" stroke="#E52521" stroke-width="2.834646e-02" stroke-linecap="round" stroke-linejoin="round" stroke-miterlimit="10" d="
				M87.8,182.9c0-0.8,0.6-1.4,1.4-1.4c0.8,0,1.4,0.6,1.4,1.4c0,0.8-0.6,1.4-1.4,1.4C88.5,184.4,87.8,183.7,87.8,182.9L87.8,182.9z"
				/>
		</g>
		<g id="LWPOLYLINE">
			
				<path fill="none" stroke="#E52521" stroke-width="2.834646e-02" stroke-linecap="round" stroke-linejoin="round" stroke-miterlimit="10" d="
				M81.8,189.6c10.4,2.5,18.6,10.6,21,21c3.6,15.2-5.8,30.5-21,34.1h-33c-2.7,0-5.3-1.3-6.9-3.5c-10.4-14.4-10.4-33.7,0-48.1
				c1.6-2.2,4.2-3.5,6.9-3.5H81.8z"/>
		</g>
	</g>
	<g>
		<g>
			<g id="CIRCLE_13_">
				
					<path fill="none" stroke="#E52521" stroke-width="2.834646e-02" stroke-linecap="round" stroke-linejoin="round" stroke-miterlimit="10" d="
					M6.2,358.2c0-38.2,30.9-69.1,69.1-69.1s69.1,30.9,69.1,69.1s-30.9,69.1-69.1,69.1S6.2,396.4,6.2,358.2L6.2,358.2z"/>
			</g>
			<g id="CIRCLE_12_">
				
					<path fill="none" stroke="#E52521" stroke-width="2.834646e-02" stroke-linecap="round" stroke-linejoin="round" stroke-miterlimit="10" d="
					M109.1,371.1c0-0.8,0.6-1.4,1.4-1.4s1.4,0.6,1.4,1.4c0,0.8-0.6,1.4-1.4,1.4S109.1,371.9,109.1,371.1L109.1,371.1z"/>
			</g>
			<g id="CIRCLE_11_">
				
					<path fill="none" stroke="#E52521" stroke-width="2.834646e-02" stroke-linecap="round" stroke-linejoin="round" stroke-miterlimit="10" d="
					M110.7,349c0-0.8,0.6-1.4,1.4-1.4s1.4,0.6,1.4,1.4c0,0.8-0.6,1.4-1.4,1.4S110.7,349.8,110.7,349L110.7,349z"/>
			</g>
			<g id="CIRCLE_10_">
				
					<path fill="none" stroke="#E52521" stroke-width="2.834646e-02" stroke-linecap="round" stroke-linejoin="round" stroke-miterlimit="10" d="
					M101.6,335.1c0-0.8,0.6-1.4,1.4-1.4c0.8,0,1.4,0.6,1.4,1.4c0,0.8-0.6,1.4-1.4,1.4C102.2,336.5,101.6,335.9,101.6,335.1
					L101.6,335.1z"/>
			</g>
			<g id="CIRCLE_9_">
				
					<path fill="none" stroke="#E52521" stroke-width="2.834646e-02" stroke-linecap="round" stroke-linejoin="round" stroke-miterlimit="10" d="
					M96.8,330.8c0-0.8,0.6-1.4,1.4-1.4c0.8,0,1.4,0.6,1.4,1.4s-0.6,1.4-1.4,1.4C97.5,332.3,96.8,331.6,96.8,330.8L96.8,330.8z"/>
			</g>
			<g id="CIRCLE_8_">
				
					<path fill="none" stroke="#E52521" stroke-width="2.834646e-02" stroke-linecap="round" stroke-linejoin="round" stroke-miterlimit="10" d="
					M87.8,324c0-0.8,0.6-1.4,1.4-1.4c0.8,0,1.4,0.6,1.4,1.4c0,0.8-0.6,1.4-1.4,1.4C88.5,325.4,87.8,324.8,87.8,324L87.8,324z"/>
			</g>
			<g id="LWPOLYLINE_1_">
				
					<path fill="none" stroke="#E52521" stroke-width="2.834646e-02" stroke-linecap="round" stroke-linejoin="round" stroke-miterlimit="10" d="
					M81.8,330.6c10.4,2.5,18.6,10.6,21,21c3.6,15.2-5.8,30.5-21,34.1h-33c-2.7,0-5.3-1.3-6.9-3.5c-10.4-14.4-10.4-33.7,0-48.1
					c1.6-2.2,4.2-3.5,6.9-3.5H81.8z"/>
			</g>
		</g>
		<g>
			<g>
				<path fill="#020203" d="M94.4,323.6h1.5v1.9c-0.4,0.1-0.9,0.2-1.4,0.2c-0.6,0-1-0.2-1.3-0.5c-0.3-0.3-0.5-0.8-0.5-1.4
					c0-0.6,0.2-1,0.5-1.3s0.8-0.5,1.4-0.5c0.2,0,0.4,0,0.6,0.1c0.2,0,0.4,0.1,0.5,0.2l-0.3,0.8c-0.3-0.1-0.5-0.2-0.8-0.2
					c-0.3,0-0.5,0.1-0.7,0.3c-0.2,0.2-0.2,0.4-0.2,0.8c0,0.3,0.1,0.6,0.2,0.8c0.1,0.2,0.3,0.3,0.6,0.3c0.1,0,0.3,0,0.4,0v-0.6h-0.6
					V323.6z"/>
				<path fill="#020203" d="M100.1,325.7h-1.3l-1.3-2.5h0c0,0.4,0,0.7,0,0.9v1.6h-0.9v-3.6h1.3l1.3,2.5h0c0-0.4,0-0.6,0-0.9v-1.6
					h0.9V325.7z"/>
				<path fill="#020203" d="M103.9,323.9c0,0.6-0.2,1.1-0.5,1.4c-0.3,0.3-0.8,0.5-1.4,0.5h-1.2v-3.6h1.2c0.6,0,1,0.1,1.3,0.4
					C103.7,322.9,103.9,323.3,103.9,323.9z M102.9,323.9c0-0.3-0.1-0.6-0.2-0.7c-0.1-0.2-0.3-0.2-0.6-0.2h-0.3v2h0.2
					c0.3,0,0.5-0.1,0.6-0.3C102.8,324.5,102.9,324.3,102.9,323.9z"/>
			</g>
			<g>
				<path fill="#020203" d="M102.8,331.3v1.3h-1V329h1.2c1,0,1.5,0.4,1.5,1.1c0,0.4-0.2,0.7-0.6,1l1,1.6h-1.1l-0.8-1.3H102.8z
					 M102.8,330.6h0.2c0.3,0,0.5-0.1,0.5-0.4c0-0.2-0.2-0.4-0.5-0.4h-0.2V330.6z"/>
				<path fill="#020203" d="M108.4,332.6h-1.1l-0.7-1.1l-0.7,1.1h-1.1l1.2-1.8l-1.1-1.7h1.1l0.6,1.1l0.6-1.1h1.1l-1.1,1.8
					L108.4,332.6z"/>
			</g>
			<g>
				<path fill="#020203" d="M108.4,336.9h-1v-2.8h-0.9v-0.8h2.7v0.8h-0.9V336.9z"/>
				<path fill="#020203" d="M113,336.9h-1.1l-0.7-1.1l-0.7,1.1h-1.1l1.2-1.8l-1.1-1.7h1.1l0.6,1.1l0.6-1.1h1.1l-1.1,1.8L113,336.9z"
					/>
			</g>
			<g>
				<path fill="#020203" d="M118.1,348c0,0.2-0.1,0.4-0.2,0.6c-0.1,0.2-0.3,0.3-0.6,0.3v0c0.6,0.1,0.9,0.4,0.9,0.8
					c0,0.3-0.1,0.6-0.4,0.8c-0.3,0.2-0.6,0.3-1.1,0.3c-0.2,0-0.4,0-0.5,0c-0.2,0-0.3-0.1-0.5-0.2v-0.8c0.2,0.1,0.3,0.1,0.5,0.2
					c0.2,0,0.3,0.1,0.4,0.1c0.2,0,0.4,0,0.5-0.1c0.1-0.1,0.1-0.2,0.1-0.3c0-0.1,0-0.2-0.1-0.2c-0.1-0.1-0.1-0.1-0.2-0.1
					c-0.1,0-0.3,0-0.4,0h-0.2v-0.7h0.2c0.5,0,0.7-0.1,0.7-0.4c0-0.1,0-0.2-0.1-0.2c-0.1,0-0.2-0.1-0.3-0.1c-0.2,0-0.5,0.1-0.7,0.2
					l-0.4-0.6c0.2-0.1,0.4-0.2,0.6-0.3c0.2-0.1,0.4-0.1,0.7-0.1c0.4,0,0.7,0.1,0.9,0.2S118.1,347.7,118.1,348z"/>
				<path fill="#020203" d="M120.8,347.2h1.1l-1.2,3.6h-1.1l-1.2-3.6h1.1l0.5,1.8c0.1,0.4,0.2,0.7,0.2,0.8c0-0.1,0-0.3,0.1-0.4
					s0.1-0.3,0.1-0.4L120.8,347.2z"/>
				<path fill="#020203" d="M124.5,348c0,0.2-0.1,0.4-0.2,0.6c-0.1,0.2-0.3,0.3-0.6,0.3v0c0.6,0.1,0.9,0.4,0.9,0.8
					c0,0.3-0.1,0.6-0.4,0.8c-0.3,0.2-0.6,0.3-1.1,0.3c-0.2,0-0.4,0-0.5,0c-0.2,0-0.3-0.1-0.5-0.2v-0.8c0.2,0.1,0.3,0.1,0.5,0.2
					c0.2,0,0.3,0.1,0.4,0.1c0.2,0,0.4,0,0.5-0.1c0.1-0.1,0.1-0.2,0.1-0.3c0-0.1,0-0.2-0.1-0.2c-0.1-0.1-0.1-0.1-0.2-0.1
					c-0.1,0-0.3,0-0.4,0h-0.2v-0.7h0.2c0.5,0,0.7-0.1,0.7-0.4c0-0.1,0-0.2-0.1-0.2c-0.1,0-0.2-0.1-0.3-0.1c-0.2,0-0.5,0.1-0.7,0.2
					l-0.4-0.6c0.2-0.1,0.4-0.2,0.6-0.3c0.2-0.1,0.4-0.1,0.7-0.1c0.4,0,0.7,0.1,0.9,0.2S124.5,347.7,124.5,348z"/>
			</g>
			<g>
				<path fill="#020203" d="M114.1,372.9v-3.6h1v3.6H114.1z"/>
				<path fill="#020203" d="M119.2,371.1c0,0.6-0.1,1.1-0.4,1.4s-0.7,0.5-1.3,0.5c-0.6,0-1-0.2-1.3-0.5c-0.3-0.3-0.4-0.8-0.4-1.4
					c0-0.6,0.1-1,0.4-1.4c0.3-0.3,0.7-0.5,1.3-0.5c0.6,0,1,0.2,1.3,0.5S119.2,370.5,119.2,371.1z M116.8,371.1c0,0.7,0.2,1,0.7,1
					c0.2,0,0.4-0.1,0.5-0.3c0.1-0.2,0.2-0.4,0.2-0.8c0-0.4-0.1-0.6-0.2-0.8c-0.1-0.2-0.3-0.3-0.5-0.3
					C117,370.1,116.8,370.4,116.8,371.1z"/>
				<path fill="#020203" d="M122.2,371.1c0,0.6-0.1,1.1-0.3,1.4c-0.2,0.3-0.5,0.4-1,0.4c-0.4,0-0.7-0.2-1-0.5
					c-0.2-0.3-0.3-0.8-0.3-1.4c0-0.6,0.1-1.1,0.3-1.4s0.5-0.4,1-0.4c0.4,0,0.7,0.2,1,0.5C122.1,370,122.2,370.5,122.2,371.1z
					 M120.6,371.1c0,0.4,0,0.7,0.1,0.8s0.1,0.2,0.3,0.2c0.1,0,0.2-0.1,0.3-0.2c0-0.2,0.1-0.4,0.1-0.8c0-0.4,0-0.7-0.1-0.8
					c-0.1-0.2-0.1-0.2-0.3-0.2s-0.2,0.1-0.3,0.2S120.6,370.7,120.6,371.1z"/>
			</g>
		</g>
	</g>
</g>
</svg>
